<?xml version="1.0" standalone="no"?>
<!DOCTYPE svg PUBLIC "-//W3C//DTD SVG 20010904//EN"
 "http://www.w3.org/TR/2001/REC-SVG-20010904/DTD/svg10.dtd">
<svg version="1.0" xmlns="http://www.w3.org/2000/svg"
 width="641.000000pt" height="641.000000pt" viewBox="0 0 641.000000 641.000000"
 preserveAspectRatio="xMidYMid meet">

<g transform="translate(0.000000,641.000000) scale(0.100000,-0.100000)"
fill="#000000" stroke="none">
<path d="M0 3205 l0 -3205 3205 0 3205 0 0 3205 0 3205 -3205 0 -3205 0 0
-3205z m3615 2916 c920 -166 1683 -732 2100 -1559 289 -572 381 -1235 260
-1856 -123 -629 -475 -1228 -985 -1670 -563 -490 -1330 -737 -2066 -665 -412
40 -863 201 -1213 435 -200 133 -241 175 -241 247 0 32 7 46 39 78 33 34 45
39 84 39 40 0 55 -8 148 -76 488 -357 1089 -529 1655 -473 748 73 1426 476
1890 1124 321 447 484 950 486 1495 1 221 -11 346 -52 540 -146 684 -525 1256
-1105 1666 -431 305 -982 472 -1490 450 -183 -8 -305 -25 -490 -71 -897 -221
-1661 -983 -1895 -1890 -42 -162 -70 -345 -79 -514 -10 -169 -22 -200 -87
-221 -71 -24 -143 16 -164 91 -22 77 20 435 80 678 84 338 203 604 407 908
122 183 216 295 399 473 426 416 914 666 1504 769 163 29 168 29 445 26 205
-2 272 -6 370 -24z m-15 -560 c641 -121 1175 -477 1545 -1032 308 -460 439
-1040 359 -1589 -65 -449 -248 -845 -562 -1218 -411 -489 -1008 -797 -1612
-831 -614 -34 -1167 178 -1644 630 -104 99 -148 149 -280 318 -367 469 -547
1008 -507 1514 14 165 31 261 77 421 147 509 536 1055 997 1397 287 214 606
353 908 398 40 6 85 13 99 15 14 2 133 3 265 1 195 -2 262 -6 355 -24z m-2983
-2631 c43 -26 57 -56 83 -185 48 -239 136 -488 237 -674 64 -119 156 -265 212
-336 120 -152 121 -154 121 -200 0 -80 -75 -139 -148 -117 -45 14 -85 52 -163
154 -170 222 -335 530 -413 768 -42 129 -97 352 -111 451 -17 116 89 196 182
139z"/>
<path d="M3050 5339 c-146 -12 -285 -41 -448 -94 -410 -134 -808 -467 -1117
-935 -358 -542 -448 -1115 -260 -1666 61 -178 148 -354 251 -507 93 -137 137
-190 279 -333 301 -302 615 -499 950 -593 210 -58 270 -66 510 -65 199 0 232
3 347 27 561 118 1044 461 1382 979 128 197 251 494 295 717 136 677 -95 1390
-610 1886 -436 419 -1010 632 -1579 584z m240 -289 c174 -12 275 -30 426 -76
540 -163 1008 -590 1202 -1096 128 -332 151 -735 63 -1079 -103 -403 -369
-793 -716 -1049 -125 -92 -173 -121 -305 -184 -388 -186 -811 -225 -1235 -114
-44 11 -84 24 -90 28 -5 4 -57 26 -115 50 -600 239 -1048 765 -1180 1387 -30
141 -37 374 -16 520 54 368 221 693 509 990 220 227 449 386 716 498 158 66
365 113 586 134 6 0 75 -4 155 -9z"/>
<path d="M2931 4794 c-363 -66 -732 -290 -997 -606 -370 -442 -474 -895 -318
-1389 79 -251 229 -485 445 -694 275 -266 512 -383 899 -447 112 -18 366 -15
480 6 216 40 452 141 640 273 121 86 325 290 413 413 126 178 220 397 269 623
28 136 30 378 4 517 -42 217 -138 443 -263 620 -81 112 -246 281 -360 367
-234 176 -525 292 -805 322 -129 14 -315 12 -407 -5z m488 -279 c292 -65 512
-175 704 -355 199 -187 333 -426 387 -692 59 -286 25 -577 -93 -822 -160 -329
-446 -577 -802 -695 -283 -94 -476 -103 -775 -36 -264 59 -490 179 -680 361
-273 263 -411 603 -397 979 7 162 29 273 82 401 184 449 599 775 1100 864 132
24 355 21 474 -5z"/>
<path d="M2974 4285 c-253 -46 -474 -162 -649 -339 -205 -207 -312 -441 -322
-706 -12 -306 101 -578 334 -807 195 -190 504 -316 775 -314 344 3 636 125
873 365 146 148 226 285 277 474 28 104 31 343 5 449 -55 229 -144 390 -302
548 -159 158 -385 275 -618 320 -107 20 -290 25 -373 10z"/>
</g>
</svg>
